<mxfile host="Electron" agent="Mozilla/5.0 (Macintosh; Intel Mac OS X 10_15_7) AppleWebKit/537.36 (KHTML, like Gecko) draw.io/26.0.9 Chrome/128.0.6613.186 Electron/32.2.5 Safari/537.36" version="26.0.9">
  <diagram name="Page-1" id="OythcXfnRQSqlgd4Vweh">
    <mxGraphModel dx="3181" dy="2222" grid="1" gridSize="10" guides="1" tooltips="1" connect="1" arrows="1" fold="1" page="1" pageScale="1" pageWidth="1169" pageHeight="827" math="0" shadow="0">
      <root>
        <mxCell id="0" />
        <mxCell id="1" parent="0" />
        <mxCell id="zdNEMFUqVTe8LAdngEql-1" value="" style="rounded=1;whiteSpace=wrap;html=1;strokeColor=#0070F2;fillColor=#EBF8FF;arcSize=24;absoluteArcSize=1;imageWidth=64;imageHeight=64;strokeWidth=1.5;container=0;" vertex="1" parent="1">
          <mxGeometry x="-2200" y="-1540" width="400" height="291" as="geometry" />
        </mxCell>
        <mxCell id="zdNEMFUqVTe8LAdngEql-2" value="SAP Cloud ALM Subaccount&lt;div&gt;&lt;font style=&quot;font-size: 12px;&quot;&gt;&lt;span style=&quot;font-weight: normal;&quot;&gt;Multi-Cloud&lt;/span&gt;&lt;/font&gt;&lt;/div&gt;" style="rounded=1;whiteSpace=wrap;html=1;strokeColor=#475E75;fillColor=#ffffff;arcSize=24;absoluteArcSize=1;imageWidth=64;imageHeight=64;strokeWidth=1.5;part=1;verticalAlign=top;align=left;fontSize=16;fontStyle=1;spacingLeft=10;spacingTop=10;" vertex="1" parent="1">
          <mxGeometry x="-2180" y="-1490.67" width="360" height="211.67" as="geometry" />
        </mxCell>
        <mxCell id="zdNEMFUqVTe8LAdngEql-3" value="" style="shape=image;verticalLabelPosition=bottom;labelBackgroundColor=default;verticalAlign=top;aspect=fixed;imageAspect=0;image=data:image/svg+xml,PHN2ZyB4bWxuczp4bGluaz0iaHR0cDovL3d3dy53My5vcmcvMTk5OS94bGluayIgeG1sbnM9Imh0dHA6Ly93d3cudzMub3JnLzIwMDAvc3ZnIiB2aWV3Qm94PSIwIDAgMTQ0Ljc0NyAzOS44MzIiIGlkPSJhIj48ZGVmcz48bGluZWFyR3JhZGllbnQgZ3JhZGllbnRVbml0cz0idXNlclNwYWNlT25Vc2UiIHkyPSIzOS44MzIiIHgyPSI0MC4yNTgiIHkxPSIwIiB4MT0iNDAuMjU4IiBpZD0iYiI+PHN0b3Agc3RvcC1jb2xvcj0iIzAwYjhmMSIgb2Zmc2V0PSIwIi8+PHN0b3Agc3RvcC1jb2xvcj0iIzAwYjVlZiIgb2Zmc2V0PSIuMDE2Ii8+PHN0b3Agc3RvcC1jb2xvcj0iIzBkOTBkOCIgb2Zmc2V0PSIuMzA4Ii8+PHN0b3Agc3RvcC1jb2xvcj0iIzE2NzVjOCIgb2Zmc2V0PSIuNTc4Ii8+PHN0b3Agc3RvcC1jb2xvcj0iIzFjNjRiZSIgb2Zmc2V0PSIuODE3Ii8+PHN0b3Agc3RvcC1jb2xvcj0iIzFlNWZiYiIgb2Zmc2V0PSIxIi8+PC9saW5lYXJHcmFkaWVudD48L2RlZnM+PHBvbHlsaW5lIGZpbGwtcnVsZT0iZXZlbm9kZCIgZmlsbD0idXJsKCNiKSIgcG9pbnRzPSIwIDM5LjgzMiA0MC42OTIgMzkuODMyIDgwLjUxNyAwIDAgMCAwIDM5LjgzMiIvPjxwYXRoIGZpbGwtcnVsZT0iZXZlbm9kZCIgZmlsbD0iI2ZmZiIgZD0ibTQ3Ljc4Miw3LjQ4OWwtNy45MjUtLjAwNXYxOC44NDVsLTYuOTI0LTE4Ljg0NWgtNi44NjVsLTUuOTEyLDE1Ljc1OWMtLjYzLTMuOTczLTQuNzQtNS4zNDUtNy45NzQtNi4zNzQtMi4xMzUtLjY4Ni00LjQwMS0xLjY5NC00LjM4LTIuODA5LjAxNy0uOTE1LDEuMjE1LTEuNzY1LDMuNTg5LTEuNjM3LDEuNTk1LjA4NCwzLjAwMS4yMTMsNS44LDEuNTYzbDIuNzUzLTQuNzk1Yy0yLjU1NS0xLjMtNi4wODYtMi4xMjEtOC45NzgtMi4xMjRoLS4wMTdjLTMuMzc0LDAtNi4xODUsMS4wOTMtNy45MjgsMi44OTQtMS4yMTQsMS4yNTgtMS44NjksMi44NTYtMS44OTYsNC42MjMtLjA0NCwyLjQzMi44NDgsNC4xNTcsMi43MjEsNS41MzMsMS41ODMsMS4xNiwzLjYwNiwxLjkxMiw1LjM5LDIuNDY1LDIuMjAxLjY4MSwzLjk5NiwxLjI3NCwzLjk3NSwyLjUzOS0uMDE2LjQ1OS0uMTkxLjg4OC0uNTIxLDEuMjM2LS41NDguNTY2LTEuMzkxLjc3OS0yLjU1NS43OTktMi4yNDQuMDQ4LTMuOTEtLjMwMy02LjU2Mi0xLjg3bC0yLjQ0OCw0Ljg2MWMyLjY0NCwxLjUwNiw1Ljc3NiwyLjM4OCw4Ljk3MiwyLjM4OGwuNDExLS4wMDZjMi43ODItLjA1LDUuMDI2LS44NDIsNi44Mi0yLjI4Ni4xMDMtLjA4MS4xOTYtLjE2Ni4yOTEtLjI1bC0uNzk1LDIuMTIzaDcuMmwxLjIwOC0zLjY3NGMxLjI2NS40MzMsMi43MDQuNjcxLDQuMjMyLjY3MSwxLjQ4NywwLDIuODg5LS4yMjksNC4xMzEtLjYzNWwxLjE2NCwzLjYzN2gxMS43NDJ2LTcuNjA3aDIuNTYxYzYuMTg4LDAsOS44NTEtMy4xNTQsOS44NTEtOC40MzYsMC01Ljg4NS0zLjU1Ny04LjU4NS0xMS4xMzItOC41ODVabS0xOC4zMTcsMTYuMTI0Yy0uOTI1LDAtMS43OTItLjE2LTIuNTM5LS40NDNsMi41MTItNy45MjZoLjA0OGwyLjQ2OCw3Ljk0OGMtLjc0Mi4yNjMtMS41ODkuNDIxLTIuNDg4LjQyMVptMTguNzgzLTQuNTUzaC0xLjc0NnYtNi4zODZoMS43NDZjMi4zMjgsMCw0LjE4NS43NzMsNC4xODUsMy4xNTEsMCwyLjQ2MS0xLjg1NywzLjIzNi00LjE4NSwzLjIzNiIvPjxwYXRoIGZpbGw9IiMwMDJhODYiIGQ9Im04MC4yMTcsNy40MDFoMTAuMDYzYzUuNTk1LDAsOC42NzQsMS45MTcsOC42NzQsNi4xNTgsMCwyLjkwMy0xLjUxMyw1LjAxNC00LjMxMSw1LjcsMy4yOS40NTgsNS4yNzgsMi41ODYsNS4yNzgsNS44OTQsMCw1LjAxNC00LjA2NCw3LjAzNy05LjE4NCw3LjAzN2gtMTAuNTIxVjcuNDAxWm0xMy45NjksNi44MjZjMC0yLjE2NC0xLjQ5Ni0yLjk3My00LjI0LTIuOTczaC01LjA0OXY2LjI5OGg0Ljg5MWMzLjIwMiwwLDQuMzk4LTEuMTYxLDQuMzk4LTMuMzI1Wm0xLjAyMSwxMC41MjFjMC0yLjM1Ny0xLjc3Ny0zLjQ2Ni00LjgzOS0zLjQ2NmgtNS40NzF2Ny4wNTVoNS41MDZjMi44MTUsMCw0LjgwNC0uNzc0LDQuODA0LTMuNTg5WiIvPjxwYXRoIGZpbGw9IiMwMDJhODYiIGQ9Im0xMDkuMDUxLDExLjVoLTcuNTgzdi00LjA5OWgxOS44NDZ2NC4wOTloLTcuNTY1djIwLjY5aC00LjY5N1YxMS41WiIvPjxwYXRoIGZpbGw9IiMwMDJhODYiIGQ9Im0xMjUuMTQ4LDcuNDAxaDEwLjUwNGM2LjE5MiwwLDkuMDk2LDMuMTg1LDkuMDk2LDcuODk5LDAsNC4zOTgtMi44MzMsOC4xNDYtOC44NSw4LjE0NmgtNi4wN3Y4Ljc0NGgtNC42OFY3LjQwMVptMTQuOTAyLDcuOTUyYzAtMi41NTEtMS42ODktMy45MjMtNC45NDQtMy45MjNoLTUuMjc4djguMDRoNS40MTljMy4yNzIsMCw0LjgwNC0xLjU4Myw0LjgwNC00LjExN1oiLz48L3N2Zz4=;strokeWidth=1.5;" vertex="1" parent="1">
          <mxGeometry x="-2180" y="-1520" width="67.25" height="18.55" as="geometry" />
        </mxCell>
        <mxCell id="zdNEMFUqVTe8LAdngEql-4" value="SAP Cloud ALM" style="shape=image;verticalLabelPosition=bottom;labelBackgroundColor=default;verticalAlign=top;aspect=fixed;imageAspect=0;image=data:image/svg+xml,PHN2ZyB4bWxucz0iaHR0cDovL3d3dy53My5vcmcvMjAwMC9zdmciIGZpbGw9Im5vbmUiIHZpZXdCb3g9IjAgMCAxNiAxNiIgaGVpZ2h0PSIxNiIgd2lkdGg9IjE2Ij4mI3hhOzxjaXJjbGUgc3Ryb2tlLXdpZHRoPSIwLjI4NTcwOCIgc3Ryb2tlPSIjRDVEQUREIiBmaWxsPSJ1cmwoI3BhaW50MF9saW5lYXJfMzg5MF8yMTQwMCkiIHI9IjcuODU2OTYiIGN5PSI3Ljk5OTgyIiBjeD0iNy45OTk4MiIvPiYjeGE7PGcgY2xpcC1wYXRoPSJ1cmwoI2NsaXAwXzM4OTBfMjE0MDApIj4mI3hhOzxwYXRoIGZpbGw9InVybCgjcGFpbnQxX2xpbmVhcl8zODkwXzIxNDAwKSIgZD0iTTcuMTc5MjkgMTIuNzUzNEM3LjA1NzIgMTIuNzE0OSA2Ljk0MTI5IDEyLjY1MTggNi44MzE1NCAxMi41NjRDNi42NDkyNCAxMi40MjA3IDYuNTM4NTcgMTIuMjMxOSA2LjQ5OTUxIDExLjk5NzZMNi4zNjI3OSAxMS4zNTNMNS41MjI5NCAxMC44NDUyTDQuOTM3MDEgMTEuMDk5MUM0LjgwNjggMTEuMTM4MiA0LjY4MzEgMTEuMTU3NyA0LjU2NTkyIDExLjE1NzdDNC4zODM2MiAxMS4xNTc3IDQuMjA3ODQgMTEuMTEyMSA0LjAzODU3IDExLjAyMUMzLjg4MjMyIDEwLjkyOTggMy43NTg2MyAxMC43OTMxIDMuNjY3NDggMTAuNjEwOEwzLjI5NjM5IDkuODg4MThDMy4yMzEyOCA5LjczMTkzIDMuMTk4NzMgOS41ODg3IDMuMTk4NzMgOS40NTg1QzMuMTk4NzMgOS4xMTk5NSAzLjMzNTQ1IDguODQ2NTIgMy42MDg4OSA4LjYzODE4TDQuMDU4MSA4LjMwNjE1VjcuMjkwNTNMMy41ODkzNSA2LjkzODk2QzMuMzI4OTQgNi43NDM2NSAzLjE5ODczIDYuNDc2NzIgMy4xOTg3MyA2LjEzODE4QzMuMTk4NzMgNi4wMDc5NyAzLjIzMTI4IDUuODY0NzUgMy4yOTYzOSA1LjcwODVMMy42Njc0OCA0Ljk4NTg0QzMuNzU4NjMgNC44MDM1NSAzLjg4MjMyIDQuNjY2ODMgNC4wMzg1NyA0LjU3NTY4QzQuMjA3ODQgNC40ODQ1NCA0LjM4MzYyIDQuNDM4OTYgNC41NjU5MiA0LjQzODk2QzQuNzA5MTQgNC40Mzg5NiA0LjgzMjg0IDQuNDY1MDEgNC45MzcwMSA0LjUxNzA5TDUuNTIyOTQgNC43NTE0Nkw2LjM2Mjc5IDQuMjQzNjVMNi40OTk1MSAzLjU5OTEyQzYuNTUxNTkgMy4zNjQ3NSA2LjY2ODc4IDMuMTc1OTQgNi44NTEwNyAzLjAzMjcxQzcuMDMzMzYgMi44NzY0NiA3LjI0MTY5IDIuNzk4MzQgNy40NzYwNyAyLjc5ODM0SDguMTU5NjZDOC4zOTQwMyAyLjc5ODM0IDguNjAyMzcgMi44NzY0NiA4Ljc4NDY2IDMuMDMyNzFDOC45NjY5NSAzLjE3NTk0IDkuMDg0MTQgMy4zNjQ3NSA5LjEzNjIyIDMuNTk5MTJMOS4yNTM0MSA0LjI0MzY1TDEwLjExMjggNC43NTE0NkwxMC42OTg3IDQuNTE3MDlDMTAuODAyOSA0LjQ2NTAxIDEwLjkyNjYgNC40Mzg5NiAxMS4wNjk4IDQuNDM4OTZDMTEuMjUyMSA0LjQzODk2IDExLjQyMTQgNC40ODQ1NCAxMS41Nzc2IDQuNTc1NjhDMTEuNzQ2OSA0LjY2NjgzIDExLjg3NzEgNC44MDM1NSAxMS45NjgyIDQuOTg1ODRMMTIuMzE5OCA1LjcwODVDMTIuMzk3OSA1LjgzODcgMTIuNDM3IDUuOTg4NDQgMTIuNDM3IDYuMTU3NzFDMTIuNDM3IDYuNDgzMjQgMTIuMzAwMyA2Ljc0MzY1IDEyLjAyNjggNi45Mzg5NkwxMS43Njc5IDcuMTMzMTNIOS43MDMxQzkuNjkwODggNy4xMDA2IDkuNjc3NyA3LjA2ODQzIDkuNjYzNTYgNy4wMzY2MkM5LjU1OTM5IDYuNzg5MjIgOS40MTYxNyA2LjU3NDM4IDkuMjMzODcgNi4zOTIwOUM5LjA1MTU4IDYuMjA5OCA4LjgzNjc0IDYuMDY2NTcgOC41ODkzNCA1Ljk2MjRDOC4zNDE5NSA1Ljg1ODI0IDguMDgxNTMgNS44MDYxNSA3LjgwODEgNS44MDYxNUM3LjUzNDY2IDUuODA2MTUgNy4yNzQyNCA1Ljg1ODI0IDcuMDI2ODUgNS45NjI0QzYuNzkyNDcgNi4wNjY1NyA2LjU4NDE0IDYuMjA5OCA2LjQwMTg1IDYuMzkyMDlDNi4yMTk1NiA2LjU3NDM4IDYuMDc2MzMgNi43ODkyMiA1Ljk3MjE2IDcuMDM2NjJDNS44NjggNy4yNzEgNS44MTU5MSA3LjUyNDkgNS44MTU5MSA3Ljc5ODM0QzUuODE1OTEgOC4wNzE3OCA1Ljg2OCA4LjMzMjE5IDUuOTcyMTYgOC41Nzk1OUM2LjA3NjMzIDguODEzOTYgNi4yMTk1NiA5LjAyMjMgNi40MDE4NSA5LjIwNDU5QzYuNTg0MTQgOS4zODY4OCA2Ljc5MjQ3IDkuNTMwMTEgNy4wMjY4NSA5LjYzNDI4QzcuMDc3MTMgOS42NTU0NSA3LjEyNzk0IDkuNjc0NDYgNy4xNzkyOSA5LjY5MTMzTDcuMTc5MjkgMTIuNzUzNFoiLz4mI3hhOzxwYXRoIGZpbGw9InVybCgjcGFpbnQyX2xpbmVhcl8zODkwXzIxNDAwKSIgZD0iTTguODA0MiA4LjEzMzA2QzguNDU5MDIgOC4xMzMwNiA4LjE3OTIgOC40MTI4OCA4LjE3OTIgOC43NTgwNlYxMi4xNjAyQzguMTc5MiAxMi41MDU0IDguNDU5MDIgMTIuNzg1MiA4LjgwNDIgMTIuNzg1MkgxMi41NjQyQzEyLjkwOTQgMTIuNzg1MiAxMy4xODkyIDEyLjUwNTQgMTMuMTg5MiAxMi4xNjAyVjguNzU4MDZDMTMuMTg5MiA4LjQxMjg4IDEyLjkwOTQgOC4xMzMwNiAxMi41NjQyIDguMTMzMDZIOC44MDQyWk0xMC42ODQ2IDkuMDcyOUMxMC42ODQ2IDkuMjMxMTMgMTAuNTU2NCA5LjM1OTQgMTAuMzk4MSA5LjM1OTRDMTAuMjM5OSA5LjM1OTQgMTAuMTExNiA5LjIzMTEzIDEwLjExMTYgOS4wNzI5QzEwLjExMTYgOC45MTQ2NyAxMC4yMzk5IDguNzg2NCAxMC4zOTgxIDguNzg2NEMxMC41NTY0IDguNzg2NCAxMC42ODQ2IDguOTE0NjcgMTAuNjg0NiA5LjA3MjlaTTExLjU0MzUgOS4wNzI5QzExLjU0MzUgOS4yMzExMyAxMS40MTUyIDkuMzU5NCAxMS4yNTcgOS4zNTk0QzExLjA5ODggOS4zNTk0IDEwLjk3MDUgOS4yMzExMyAxMC45NzA1IDkuMDcyOUMxMC45NzA1IDguOTE0NjcgMTEuMDk4OCA4Ljc4NjQgMTEuMjU3IDguNzg2NEMxMS40MTUyIDguNzg2NCAxMS41NDM1IDguOTE0NjcgMTEuNTQzNSA5LjA3MjlaTTEyLjExNTkgOS4zNTk0QzEyLjI3NDEgOS4zNTk0IDEyLjQwMjQgOS4yMzExMyAxMi40MDI0IDkuMDcyOUMxMi40MDI0IDguOTE0NjcgMTIuMjc0MSA4Ljc4NjQgMTIuMTE1OSA4Ljc4NjRDMTEuOTU3NiA4Ljc4NjQgMTEuODI5NCA4LjkxNDY3IDExLjgyOTQgOS4wNzI5QzExLjgyOTQgOS4yMzExMyAxMS45NTc2IDkuMzU5NCAxMi4xMTU5IDkuMzU5NFpNOC44OTQ5MiAxMC40MjAzQzguODk0OTIgMTAuMzQxMiA4Ljk1OTAxIDEwLjI3NzEgOS4wMzgwNyAxMC4yNzcxSDEyLjMzMDRDMTIuNDA5NCAxMC4yNzcxIDEyLjQ3MzUgMTAuMzQxMiAxMi40NzM1IDEwLjQyMDNWMTEuODUzQzEyLjQ3MzUgMTEuOTMyIDEyLjQwOTQgMTEuOTk2MSAxMi4zMzA0IDExLjk5NjFIOS4wMzgwN0M4Ljk1OTAxIDExLjk5NjEgOC44OTQ5MiAxMS45MzIgOC44OTQ5MiAxMS44NTNWMTAuNDIwM1oiIGNsaXAtcnVsZT0iZXZlbm9kZCIgZmlsbC1ydWxlPSJldmVub2RkIi8+JiN4YTs8L2c+JiN4YTs8ZGVmcz4mI3hhOzxsaW5lYXJHcmFkaWVudCBncmFkaWVudFVuaXRzPSJ1c2VyU3BhY2VPblVzZSIgeTI9IjE0Ljc0NzgiIHgyPSIxMy42ODc4IiB5MT0iMi4yNzA5IiB4MT0iMS40NTA5MiIgaWQ9InBhaW50MF9saW5lYXJfMzg5MF8yMTQwMCI+JiN4YTs8c3RvcCBzdG9wLWNvbG9yPSJ3aGl0ZSIvPiYjeGE7PHN0b3Agc3RvcC1jb2xvcj0iI0VBRUNFRSIgb2Zmc2V0PSIxIi8+JiN4YTs8L2xpbmVhckdyYWRpZW50PiYjeGE7PGxpbmVhckdyYWRpZW50IGdyYWRpZW50VW5pdHM9InVzZXJTcGFjZU9uVXNlIiB5Mj0iMTAuNzQiIHgyPSIxMS41MzQ4IiB5MT0iNC4yODcwNSIgeDE9IjQuNTgzNTkiIGlkPSJwYWludDFfbGluZWFyXzM4OTBfMjE0MDAiPiYjeGE7PHN0b3Agc3RvcC1jb2xvcj0iIzAxOTVGRiIvPiYjeGE7PHN0b3Agc3RvcC1jb2xvcj0iIzExNDdFOSIgb2Zmc2V0PSIwLjk5MTAyOCIvPiYjeGE7PC9saW5lYXJHcmFkaWVudD4mI3hhOzxsaW5lYXJHcmFkaWVudCBncmFkaWVudFVuaXRzPSJ1c2VyU3BhY2VPblVzZSIgeTI9IjEyLjMyNzIiIHgyPSIxMi4xNzc3IiB5MT0iOC44MzEwMyIgeDE9IjguOTI4OTkiIGlkPSJwYWludDJfbGluZWFyXzM4OTBfMjE0MDAiPiYjeGE7PHN0b3Agc3RvcC1jb2xvcj0iIzAwQkJGRiIvPiYjeGE7PHN0b3Agc3RvcC1jb2xvcj0iIzAwOEJGRiIgb2Zmc2V0PSIxIi8+JiN4YTs8L2xpbmVhckdyYWRpZW50PiYjeGE7PGNsaXBQYXRoIGlkPSJjbGlwMF8zODkwXzIxNDAwIj4mI3hhOzxyZWN0IHRyYW5zZm9ybT0idHJhbnNsYXRlKDMuMjAwMiAyLjgwMDA1KSIgZmlsbD0id2hpdGUiIGhlaWdodD0iMTAiIHdpZHRoPSIxMCIvPiYjeGE7PC9jbGlwUGF0aD4mI3hhOzwvZGVmcz4mI3hhOzwvc3ZnPg==;" vertex="1" parent="1">
          <mxGeometry x="-2144.75" y="-1399" width="32" height="32" as="geometry" />
        </mxCell>
        <mxCell id="zdNEMFUqVTe8LAdngEql-5" value="" style="strokeColor=#0070F2;shadow=0;strokeWidth=2;rounded=1;absoluteArcSize=1;arcSize=20;whiteSpace=wrap;verticalAlign=bottom;spacing=10;fontSize=10;fontColor=#556B82;align=left;" vertex="1" parent="1">
          <mxGeometry x="-1590" y="-1289.37" width="250" height="169.37" as="geometry" />
        </mxCell>
        <mxCell id="zdNEMFUqVTe8LAdngEql-6" value="SAP Cloud Solutions" style="shape=image;editableCssRules=.*;part=0;verticalLabelPosition=bottom;labelBackgroundColor=default;verticalAlign=top;imageAspect=0;image=data:image/svg+xml,PHN2ZyB4bWxucz0iaHR0cDovL3d3dy53My5vcmcvMjAwMC9zdmciIHZpZXdCb3g9Ii0wLjUgLTAuNSAyOCAxOC40MTIiIGhlaWdodD0iMTguNDEyIiB3aWR0aD0iMjgiPiYjeGE7CSAgPHN0eWxlIHR5cGU9InRleHQvY3NzIj4uc3QwIHsgc3RvcC1jb2xvcjogcmdiKDM1LCAxNDksIDI1NSk7IH0gLnN0MSB7IHN0b3AtY29sb3I6IHJnYigwLCA4NywgMjEwKTsgfSA8L3N0eWxlPiYjeGE7CTxkZWZzPiYjeGE7CQk8bGluZWFyR3JhZGllbnQgZ3JhZGllbnRVbml0cz0idXNlclNwYWNlT25Vc2UiIHkyPSIyMi4wMDgiIHgyPSIxNC44NjkiIHkxPSIyLjExMyIgeDE9IjIuMDM5IiBpZD0iQSI+JiN4YTsJCQk8c3RvcCBjbGFzcz0ic3QwIi8+JiN4YTsJCQk8c3RvcCBjbGFzcz0ic3QxIiBvZmZzZXQ9IjEiLz4mI3hhOwkJPC9saW5lYXJHcmFkaWVudD4mI3hhOwk8L2RlZnM+JiN4YTsJPHBhdGggZmlsbD0idXJsKCNBKSIgZD0iTTUuOTAzIDYuMDQ3QzYuNDM0IDIuMzQ1IDkuNjE5LS41IDEzLjQ2Ny0uNWMyLjgwMSAwIDUuMjQ3IDEuNTA2IDYuNTc3IDMuNzQ5aC4xMjRjNC4wNDkgMCA3LjMzMSAzLjI4MiA3LjMzMSA3LjMzMXMtMy4yODIgNy4zMzEtNy4zMzEgNy4zMzFoLTQuMDU0Yy0uMDg3IDAtLjE3My0uMDAyLS4yNTktLjAwNS0uMDc4LjAwMy0uMTU1LjAwNS0uMjMzLjAwNUg1LjQzMmMtMy4yNzYgMC01LjkzMi0yLjY1Ni01LjkzMi01LjkzMnMyLjY1Ni01LjkzMiA1LjkzMi01LjkzMnpNMTMuNDY3IDIuM2MtMi42NzQgMC00Ljg0MiAyLjE2OC00Ljg0MiA0Ljg0MmE0Ljk0IDQuOTQgMCAwIDAgLjAwNi4yMzggMS40IDEuNCAwIDAgMS0xLjM5OCAxLjQ2N2gtMS44Yy0xLjczIDAtMy4xMzIgMS40MDItMy4xMzIgMy4xMzJzMS40MDIgMy4xMzIgMy4xMzIgMy4xMzJoMTAuMTlhMy4xNCAzLjE0IDAgMCAwIC4xNi0uMDA0IDEuMzkgMS4zOSAwIDAgMSAuMTMxIDBjLjA2Ny4wMDMuMTM0LjAwNC4yMDIuMDA0aDQuMDU0YTQuNTMgNC41MyAwIDEgMCAwLTkuMDYyaC0uOTc3YTEuNCAxLjQgMCAwIDEtMS4yODMtLjg0QzE3LjE2MSAzLjQ5NCAxNS40NTIgMi4zIDEzLjQ2NyAyLjN6IiBmaWxsLXJ1bGU9ImV2ZW5vZGQiLz4mI3hhOzwvc3ZnPg==;labelPosition=center;align=left;fontSize=16;fontStyle=1;spacingLeft=0;" vertex="1" parent="zdNEMFUqVTe8LAdngEql-5">
          <mxGeometry y="0.5" width="34" height="22" relative="1" as="geometry">
            <mxPoint x="10" y="-75" as="offset" />
          </mxGeometry>
        </mxCell>
        <mxCell id="zdNEMFUqVTe8LAdngEql-7" value="S/4HANA" style="image;image=img/lib/sap/SAP_Logo.svg;editableCssRules=.*;verticalLabelPosition=middle;labelBackgroundColor=none;verticalAlign=middle;imageAspect=0;labelPosition=right;align=left;fontSize=16;fontStyle=1;spacingLeft=0;fontColor=#002A86;spacing=0;" vertex="1" parent="zdNEMFUqVTe8LAdngEql-5">
          <mxGeometry x="20" y="71.21" width="50" height="28" as="geometry" />
        </mxCell>
        <mxCell id="zdNEMFUqVTe8LAdngEql-8" value="" style="edgeStyle=elbowEdgeStyle;rounded=0;orthogonalLoop=1;jettySize=auto;html=1;strokeColor=#475E75;endArrow=none;endFill=0;strokeWidth=1.5;sourcePerimeterSpacing=0;targetPerimeterSpacing=0;endSize=4;startSize=4;elbow=vertical;startArrow=none;startFill=0;entryX=0.458;entryY=-0.01;entryDx=0;entryDy=0;exitX=1;exitY=0.5;exitDx=0;exitDy=0;dashed=1;entryPerimeter=0;" edge="1" parent="1">
          <mxGeometry relative="1" as="geometry">
            <mxPoint x="-2135.75" y="-1383" as="sourcePoint" />
            <mxPoint x="-1498.5" y="-1290.5637000000002" as="targetPoint" />
            <Array as="points">
              <mxPoint x="-1703" y="-1383" />
            </Array>
          </mxGeometry>
        </mxCell>
        <mxCell id="zdNEMFUqVTe8LAdngEql-9" value="NETWORK" style="text;html=1;align=left;verticalAlign=middle;resizable=0;points=[];autosize=1;strokeColor=none;fillColor=none;fontSize=14;fontStyle=1;fontColor=#5B738B;" vertex="1" parent="1">
          <mxGeometry x="-1610" y="-1531.8600000000001" width="100" height="30" as="geometry" />
        </mxCell>
        <mxCell id="zdNEMFUqVTe8LAdngEql-10" value="" style="endArrow=none;html=1;strokeColor=#5B738B;bendable=1;rounded=0;endFill=0;endSize=4;strokeWidth=3;startSize=4;startArrow=none;startFill=0;jumpStyle=gap;" edge="1" parent="1">
          <mxGeometry width="50" height="50" relative="1" as="geometry">
            <mxPoint x="-1620" y="-1529.8600000000001" as="sourcePoint" />
            <mxPoint x="-1620" y="-910" as="targetPoint" />
            <Array as="points" />
          </mxGeometry>
        </mxCell>
        <mxCell id="zdNEMFUqVTe8LAdngEql-11" value="" style="rounded=1;whiteSpace=wrap;html=1;strokeColor=#0070F2;fillColor=#EBF8FF;arcSize=24;absoluteArcSize=1;imageWidth=64;imageHeight=64;strokeWidth=1.5;container=0;" vertex="1" parent="1">
          <mxGeometry x="-2200" y="-1215.22" width="530" height="291" as="geometry" />
        </mxCell>
        <mxCell id="zdNEMFUqVTe8LAdngEql-12" value="" style="shape=image;verticalLabelPosition=bottom;labelBackgroundColor=default;verticalAlign=top;aspect=fixed;imageAspect=0;image=data:image/svg+xml,PHN2ZyB4bWxuczp4bGluaz0iaHR0cDovL3d3dy53My5vcmcvMTk5OS94bGluayIgeG1sbnM9Imh0dHA6Ly93d3cudzMub3JnLzIwMDAvc3ZnIiB2aWV3Qm94PSIwIDAgMTQ0Ljc0NyAzOS44MzIiIGlkPSJhIj48ZGVmcz48bGluZWFyR3JhZGllbnQgZ3JhZGllbnRVbml0cz0idXNlclNwYWNlT25Vc2UiIHkyPSIzOS44MzIiIHgyPSI0MC4yNTgiIHkxPSIwIiB4MT0iNDAuMjU4IiBpZD0iYiI+PHN0b3Agc3RvcC1jb2xvcj0iIzAwYjhmMSIgb2Zmc2V0PSIwIi8+PHN0b3Agc3RvcC1jb2xvcj0iIzAwYjVlZiIgb2Zmc2V0PSIuMDE2Ii8+PHN0b3Agc3RvcC1jb2xvcj0iIzBkOTBkOCIgb2Zmc2V0PSIuMzA4Ii8+PHN0b3Agc3RvcC1jb2xvcj0iIzE2NzVjOCIgb2Zmc2V0PSIuNTc4Ii8+PHN0b3Agc3RvcC1jb2xvcj0iIzFjNjRiZSIgb2Zmc2V0PSIuODE3Ii8+PHN0b3Agc3RvcC1jb2xvcj0iIzFlNWZiYiIgb2Zmc2V0PSIxIi8+PC9saW5lYXJHcmFkaWVudD48L2RlZnM+PHBvbHlsaW5lIGZpbGwtcnVsZT0iZXZlbm9kZCIgZmlsbD0idXJsKCNiKSIgcG9pbnRzPSIwIDM5LjgzMiA0MC42OTIgMzkuODMyIDgwLjUxNyAwIDAgMCAwIDM5LjgzMiIvPjxwYXRoIGZpbGwtcnVsZT0iZXZlbm9kZCIgZmlsbD0iI2ZmZiIgZD0ibTQ3Ljc4Miw3LjQ4OWwtNy45MjUtLjAwNXYxOC44NDVsLTYuOTI0LTE4Ljg0NWgtNi44NjVsLTUuOTEyLDE1Ljc1OWMtLjYzLTMuOTczLTQuNzQtNS4zNDUtNy45NzQtNi4zNzQtMi4xMzUtLjY4Ni00LjQwMS0xLjY5NC00LjM4LTIuODA5LjAxNy0uOTE1LDEuMjE1LTEuNzY1LDMuNTg5LTEuNjM3LDEuNTk1LjA4NCwzLjAwMS4yMTMsNS44LDEuNTYzbDIuNzUzLTQuNzk1Yy0yLjU1NS0xLjMtNi4wODYtMi4xMjEtOC45NzgtMi4xMjRoLS4wMTdjLTMuMzc0LDAtNi4xODUsMS4wOTMtNy45MjgsMi44OTQtMS4yMTQsMS4yNTgtMS44NjksMi44NTYtMS44OTYsNC42MjMtLjA0NCwyLjQzMi44NDgsNC4xNTcsMi43MjEsNS41MzMsMS41ODMsMS4xNiwzLjYwNiwxLjkxMiw1LjM5LDIuNDY1LDIuMjAxLjY4MSwzLjk5NiwxLjI3NCwzLjk3NSwyLjUzOS0uMDE2LjQ1OS0uMTkxLjg4OC0uNTIxLDEuMjM2LS41NDguNTY2LTEuMzkxLjc3OS0yLjU1NS43OTktMi4yNDQuMDQ4LTMuOTEtLjMwMy02LjU2Mi0xLjg3bC0yLjQ0OCw0Ljg2MWMyLjY0NCwxLjUwNiw1Ljc3NiwyLjM4OCw4Ljk3MiwyLjM4OGwuNDExLS4wMDZjMi43ODItLjA1LDUuMDI2LS44NDIsNi44Mi0yLjI4Ni4xMDMtLjA4MS4xOTYtLjE2Ni4yOTEtLjI1bC0uNzk1LDIuMTIzaDcuMmwxLjIwOC0zLjY3NGMxLjI2NS40MzMsMi43MDQuNjcxLDQuMjMyLjY3MSwxLjQ4NywwLDIuODg5LS4yMjksNC4xMzEtLjYzNWwxLjE2NCwzLjYzN2gxMS43NDJ2LTcuNjA3aDIuNTYxYzYuMTg4LDAsOS44NTEtMy4xNTQsOS44NTEtOC40MzYsMC01Ljg4NS0zLjU1Ny04LjU4NS0xMS4xMzItOC41ODVabS0xOC4zMTcsMTYuMTI0Yy0uOTI1LDAtMS43OTItLjE2LTIuNTM5LS40NDNsMi41MTItNy45MjZoLjA0OGwyLjQ2OCw3Ljk0OGMtLjc0Mi4yNjMtMS41ODkuNDIxLTIuNDg4LjQyMVptMTguNzgzLTQuNTUzaC0xLjc0NnYtNi4zODZoMS43NDZjMi4zMjgsMCw0LjE4NS43NzMsNC4xODUsMy4xNTEsMCwyLjQ2MS0xLjg1NywzLjIzNi00LjE4NSwzLjIzNiIvPjxwYXRoIGZpbGw9IiMwMDJhODYiIGQ9Im04MC4yMTcsNy40MDFoMTAuMDYzYzUuNTk1LDAsOC42NzQsMS45MTcsOC42NzQsNi4xNTgsMCwyLjkwMy0xLjUxMyw1LjAxNC00LjMxMSw1LjcsMy4yOS40NTgsNS4yNzgsMi41ODYsNS4yNzgsNS44OTQsMCw1LjAxNC00LjA2NCw3LjAzNy05LjE4NCw3LjAzN2gtMTAuNTIxVjcuNDAxWm0xMy45NjksNi44MjZjMC0yLjE2NC0xLjQ5Ni0yLjk3My00LjI0LTIuOTczaC01LjA0OXY2LjI5OGg0Ljg5MWMzLjIwMiwwLDQuMzk4LTEuMTYxLDQuMzk4LTMuMzI1Wm0xLjAyMSwxMC41MjFjMC0yLjM1Ny0xLjc3Ny0zLjQ2Ni00LjgzOS0zLjQ2NmgtNS40NzF2Ny4wNTVoNS41MDZjMi44MTUsMCw0LjgwNC0uNzc0LDQuODA0LTMuNTg5WiIvPjxwYXRoIGZpbGw9IiMwMDJhODYiIGQ9Im0xMDkuMDUxLDExLjVoLTcuNTgzdi00LjA5OWgxOS44NDZ2NC4wOTloLTcuNTY1djIwLjY5aC00LjY5N1YxMS41WiIvPjxwYXRoIGZpbGw9IiMwMDJhODYiIGQ9Im0xMjUuMTQ4LDcuNDAxaDEwLjUwNGM2LjE5MiwwLDkuMDk2LDMuMTg1LDkuMDk2LDcuODk5LDAsNC4zOTgtMi44MzMsOC4xNDYtOC44NSw4LjE0NmgtNi4wN3Y4Ljc0NGgtNC42OFY3LjQwMVptMTQuOTAyLDcuOTUyYzAtMi41NTEtMS42ODktMy45MjMtNC45NDQtMy45MjNoLTUuMjc4djguMDRoNS40MTljMy4yNzIsMCw0LjgwNC0xLjU4Myw0LjgwNC00LjExN1oiLz48L3N2Zz4=;strokeWidth=1.5;" vertex="1" parent="1">
          <mxGeometry x="-2180" y="-1195.22" width="67.25" height="18.55" as="geometry" />
        </mxCell>
        <mxCell id="zdNEMFUqVTe8LAdngEql-13" value="SAP BTP Subaccount&lt;div&gt;&lt;font style=&quot;font-size: 12px;&quot;&gt;&lt;span style=&quot;font-weight: normal;&quot;&gt;Multi-Cloud&lt;/span&gt;&lt;/font&gt;&lt;/div&gt;" style="rounded=1;whiteSpace=wrap;html=1;strokeColor=#475E75;fillColor=#ffffff;arcSize=24;absoluteArcSize=1;imageWidth=64;imageHeight=64;strokeWidth=1.5;part=1;verticalAlign=top;align=left;fontSize=16;fontStyle=1;spacingLeft=10;spacingTop=10;" vertex="1" parent="1">
          <mxGeometry x="-2180" y="-1160" width="490" height="211.67" as="geometry" />
        </mxCell>
        <mxCell id="zdNEMFUqVTe8LAdngEql-14" value="" style="rounded=1;whiteSpace=wrap;html=1;strokeColor=#0070F2;fillColor=#EBF8FF;arcSize=24;absoluteArcSize=1;imageWidth=64;imageHeight=64;strokeWidth=1.5;" vertex="1" parent="1">
          <mxGeometry x="-2162" y="-1077" width="320" height="80" as="geometry" />
        </mxCell>
        <mxCell id="zdNEMFUqVTe8LAdngEql-15" value="SAP Build&#xa;Code" style="shape=mxgraph.sap.icon;labelPosition=center;verticalLabelPosition=bottom;align=center;verticalAlign=top;strokeWidth=1;strokeColor=#D5DADD;fillColor=#EDEFF0;gradientColor=#FCFCFC;gradientDirection=west;aspect=fixed;SAPIcon=SAP_Build_Code" vertex="1" parent="1">
          <mxGeometry x="-2125.17" y="-1070" width="32" height="32" as="geometry" />
        </mxCell>
        <mxCell id="zdNEMFUqVTe8LAdngEql-16" value="SAP Build &#xa;Work Zone" style="shape=mxgraph.sap.icon;labelPosition=center;verticalLabelPosition=bottom;align=center;verticalAlign=top;strokeWidth=1;strokeColor=#D5DADD;fillColor=#EDEFF0;gradientColor=#FCFCFC;gradientDirection=west;aspect=fixed;SAPIcon=SAP_Build_Work_Zone_-_Standard_Edition" vertex="1" parent="1">
          <mxGeometry x="-2024.83" y="-1070" width="32" height="32" as="geometry" />
        </mxCell>
        <mxCell id="zdNEMFUqVTe8LAdngEql-17" value="SAP Build&#xa;Process Automation" style="shape=mxgraph.sap.icon;labelPosition=center;verticalLabelPosition=bottom;align=center;verticalAlign=top;strokeWidth=1;strokeColor=#D5DADD;fillColor=#EDEFF0;gradientColor=#FCFCFC;gradientDirection=west;aspect=fixed;SAPIcon=SAP_Build_Process_Automation" vertex="1" parent="1">
          <mxGeometry x="-1929.2600000000002" y="-1070" width="32" height="32" as="geometry" />
        </mxCell>
        <mxCell id="zdNEMFUqVTe8LAdngEql-18" value="Destination" style="shape=mxgraph.sap.icon;labelPosition=center;verticalLabelPosition=bottom;align=center;verticalAlign=top;strokeWidth=1;strokeColor=#D5DADD;fillColor=#EDEFF0;gradientColor=#FCFCFC;gradientDirection=west;aspect=fixed;SAPIcon=SAP_Destination_service;fontColor=#1D2D3E;" vertex="1" parent="1">
          <mxGeometry x="-1790" y="-1052.7862686567164" width="31.570149253731344" height="31.570149253731344" as="geometry" />
        </mxCell>
        <mxCell id="zdNEMFUqVTe8LAdngEql-19" style="edgeStyle=elbowEdgeStyle;rounded=0;orthogonalLoop=1;jettySize=auto;html=1;strokeColor=#475E75;endArrow=blockThin;endFill=1;strokeWidth=1.5;sourcePerimeterSpacing=0;targetPerimeterSpacing=0;endSize=4;startSize=4;elbow=vertical;" edge="1" parent="1" target="zdNEMFUqVTe8LAdngEql-18">
          <mxGeometry relative="1" as="geometry">
            <mxPoint x="-1842" y="-1036.9546268656718" as="sourcePoint" />
            <mxPoint x="-1706" y="-1037.054193548387" as="targetPoint" />
          </mxGeometry>
        </mxCell>
        <mxCell id="zdNEMFUqVTe8LAdngEql-20" value="HTTPS" style="rounded=1;whiteSpace=wrap;html=1;strokeColor=#475E75;strokeWidth=1.5;arcSize=16;fillColor=#FFFFFF;perimeterSpacing=0;absoluteArcSize=1;fontColor=#475E75;fontSize=10;fontStyle=1" vertex="1" parent="1">
          <mxGeometry x="-1832.4299999999998" y="-1392.97" width="51" height="16" as="geometry" />
        </mxCell>
        <mxCell id="zdNEMFUqVTe8LAdngEql-21" value="" style="edgeStyle=elbowEdgeStyle;rounded=0;orthogonalLoop=1;jettySize=auto;html=1;strokeColor=#475E75;endArrow=none;endFill=0;strokeWidth=1.5;sourcePerimeterSpacing=0;targetPerimeterSpacing=0;endSize=4;startSize=4;elbow=vertical;startArrow=none;startFill=0;exitX=1;exitY=0.5;exitDx=0;exitDy=0;dashed=1;" edge="1" parent="1" source="zdNEMFUqVTe8LAdngEql-18">
          <mxGeometry relative="1" as="geometry">
            <mxPoint x="-1820" y="-1038" as="sourcePoint" />
            <mxPoint x="-1458" y="-1120" as="targetPoint" />
            <Array as="points">
              <mxPoint x="-1610" y="-1040" />
            </Array>
          </mxGeometry>
        </mxCell>
        <mxCell id="zdNEMFUqVTe8LAdngEql-22" value="HTTPS" style="rounded=1;whiteSpace=wrap;html=1;strokeColor=#475E75;strokeWidth=1.5;arcSize=16;fillColor=#FFFFFF;perimeterSpacing=0;absoluteArcSize=1;fontColor=#475E75;fontSize=10;fontStyle=1" vertex="1" parent="1">
          <mxGeometry x="-1701.83" y="-1048.79" width="51" height="16" as="geometry" />
        </mxCell>
        <mxCell id="zdNEMFUqVTe8LAdngEql-23" value="" style="rounded=1;whiteSpace=wrap;html=1;strokeColor=#07838F;fillColor=#DAFDF5;arcSize=24;absoluteArcSize=1;imageWidth=64;imageHeight=64;strokeWidth=1.5;verticalAlign=top;align=left;fontSize=16;fontStyle=1;spacingTop=10;spacingLeft=20;" vertex="1" parent="1">
          <mxGeometry x="-1555" y="-1462.97" width="180" height="70" as="geometry" />
        </mxCell>
        <mxCell id="zdNEMFUqVTe8LAdngEql-24" value="" style="shape=image;verticalLabelPosition=bottom;verticalAlign=top;imageAspect=0;image=data:image/svg+xml,PHN2ZyB4bWxuczp4bGluaz0iaHR0cDovL3d3dy53My5vcmcvMTk5OS94bGluayIgeG1sbnM9Imh0dHA6Ly93d3cudzMub3JnLzIwMDAvc3ZnIiB2aWV3Qm94PSIwIDAgOTU0LjI2IDIwMCIgaWQ9IkxheW91dCI+PGRlZnM+PHN0eWxlPi5jbHMtMXtmaWxsOnVybCgjbGluZWFyLWdyYWRpZW50KTt9LmNscy0xLC5jbHMtMntmaWxsLXJ1bGU6ZXZlbm9kZDt9LmNscy0xLC5jbHMtMiwuY2xzLTN7c3Ryb2tlLXdpZHRoOjBweDt9LmNscy0ye2ZpbGw6I2ZmZjt9LmNscy0ze2ZpbGw6IzAwMmE4Njt9PC9zdHlsZT48bGluZWFyR3JhZGllbnQgZ3JhZGllbnRVbml0cz0idXNlclNwYWNlT25Vc2UiIHkyPSIyMDAiIHgyPSIyMDIuMTQiIHkxPSIwIiB4MT0iMjAyLjE0IiBpZD0ibGluZWFyLWdyYWRpZW50Ij48c3RvcCBzdG9wLWNvbG9yPSIjMDBiOGYxIiBvZmZzZXQ9IjAiLz48c3RvcCBzdG9wLWNvbG9yPSIjMDBiNWVmIiBvZmZzZXQ9Ii4wMiIvPjxzdG9wIHN0b3AtY29sb3I9IiMwZDkwZDgiIG9mZnNldD0iLjMxIi8+PHN0b3Agc3RvcC1jb2xvcj0iIzE2NzVjOCIgb2Zmc2V0PSIuNTgiLz48c3RvcCBzdG9wLWNvbG9yPSIjMWM2NGJlIiBvZmZzZXQ9Ii44MiIvPjxzdG9wIHN0b3AtY29sb3I9IiMxZTVmYmIiIG9mZnNldD0iMSIvPjwvbGluZWFyR3JhZGllbnQ+PC9kZWZzPjxwb2x5bGluZSBwb2ludHM9IjAgMjAwIDIwNC4zMiAyMDAgNDA0LjI5IDAgMCAwIDAgMjAwIiBjbGFzcz0iY2xzLTEiLz48cGF0aCBkPSJNMjM5LjkyLDM3LjYxbC0zOS43OS0uMDN2OTQuNjJsLTM0Ljc2LTk0LjYyaC0zNC40N2wtMjkuNjgsNzkuMTNjLTMuMTYtMTkuOTUtMjMuOC0yNi44NC00MC4wNC0zMi4wMS0xMC43Mi0zLjQ0LTIyLjEtOC41MS0yMS45OS0xNC4xLjA5LTQuNTksNi4xLTguODYsMTguMDItOC4yMiw4LjAxLjQyLDE1LjA3LDEuMDcsMjkuMTMsNy44NWwxMy44My0yNC4wOGMtMTIuODMtNi41My0zMC41Ni0xMC42NS00NS4wOC0xMC42N2gtLjA4Yy0xNi45NCwwLTMxLjA1LDUuNDktMzkuODEsMTQuNTMtNi4xLDYuMzItOS4zOCwxNC4zNC05LjUyLDIzLjIxLS4yMiwxMi4yMSw0LjI2LDIwLjg3LDEzLjY2LDI3Ljc4LDcuOTUsNS44MywxOC4xMSw5LjYsMjcuMDYsMTIuMzgsMTEuMDUsMy40MiwyMC4wNyw2LjQsMTkuOTYsMTIuNzUtLjA4LDIuMy0uOTYsNC40Ni0yLjYyLDYuMjEtMi43NSwyLjg0LTYuOTgsMy45MS0xMi44Myw0LjAxLTExLjI3LjI0LTE5LjYzLTEuNTItMzIuOTUtOS4zOWwtMTIuMjksMjQuNDFjMTMuMjgsNy41NiwyOSwxMS45OSw0NS4wNSwxMS45OWwyLjA3LS4wM2MxMy45Ny0uMjUsMjUuMjQtNC4yMywzNC4yNC0xMS40OC41Mi0uNDEuOTgtLjgzLDEuNDYtMS4yNmwtMy45OSwxMC42NmgzNi4xNWw2LjA3LTE4LjQ1YzYuMzUsMi4xNywxMy41OCwzLjM3LDIxLjI1LDMuMzdzMTQuNTEtMS4xNSwyMC43NC0zLjE5bDUuODUsMTguMjZoNTguOTZ2LTM4LjE5aDEyLjg2YzMxLjA3LDAsNDkuNDYtMTUuODQsNDkuNDYtNDIuMzYsMC0yOS41NS0xNy44Ni00My4xMS01NS44OS00My4xMVpNMTQ3Ljk1LDExOC41N2MtNC42NCwwLTktLjgtMTIuNzUtMi4yMmwxMi42MS0zOS44aC4yNGwxMi4zOSwzOS45MWMtMy43MiwxLjMyLTcuOTgsMi4xMS0xMi40OSwyLjExWk0yNDIuMjYsOTUuN2gtOC43N3YtMzIuMDdoOC43N2MxMS42OSwwLDIxLjAxLDMuODgsMjEuMDEsMTUuODJzLTkuMzIsMTYuMjUtMjEuMDEsMTYuMjUiIGNsYXNzPSJjbHMtMiIvPjxwYXRoIGQ9Ik00MDIuNzgsMzcuMTVoMjMuNXYxMDMuOWg1NS43NXYyMC41OWgtNzkuMjVWMzcuMTVaIiBjbGFzcz0iY2xzLTMiLz48cGF0aCBkPSJNNDkwLjM3LDExMy4zYzAtMzMuNjYsMjIuMTctNTAuMTgsNDguNTEtNTAuMTgsMzIuMzMsMCw0My44MiwyMy42OCw0My44Miw0Ny4xOCwwLDIuODMtLjE4LDUuNzQtLjM1LDguNDhoLTY4LjM4YzEuNTksMTguMzgsMTEuMTMsMjcuMTMsMjcuOTIsMjcuMTMsMTAuODcsMCwxOC4xMS0zLjE4LDI0LjY1LTEwLjc4bDEyLjk5LDEyLjk5Yy05LjAxLDEwLjE2LTIwLjA1LDE1LjI5LTM4LjcsMTUuMjktMzEuMDEsMC01MC40NS0xNy43Ni01MC40NS01MC4wOVpNNTYwLjQzLDEwNC45MWMtMS4yNC0xNy4wNS05LjU0LTI0LjU2LTIyLjA5LTI0LjU2cy0yMS44Miw3LjUxLTI0LjAzLDI0LjU2aDQ2LjEyWiIgY2xhc3M9ImNscy0zIi8+PHBhdGggZD0iTTU5My4xNSwxMzUuM2MwLTIwLjc2LDE2Ljk2LTMwLjQ4LDQyLjA1LTMwLjQ4aDE3LjQ5di01LjU3YzAtMTEuNjYtNS42NS0xOC4wMi0xNy40MS0xOC4wMi0xMC45NSwwLTE4LjY0LDQuNjgtMjQuNjUsMTIuMjhsLTEzLjM0LTEzLjI1YzguOTItOS43MiwyMS4wMy0xNy4xNCw0MC4zOC0xNy4xNCwyNC41NiwwLDM3LjI4LDEyLjgxLDM3LjI4LDM2LjIydjYyLjI5aC0yMS41NnYtMTcuOTRoLS41M2MtNS45MiwxMy41Mi0xNS42NCwxOS43LTMwLjg0LDE5LjctMTYuODcsMC0yOC44OS0xMC4wNy0yOC44OS0yOC4wOVpNNjI5Ljk5LDE0Ni4xN2MxNC40LDAsMjIuNzEtMTAuODcsMjIuNzEtMjIuMjZ2LTYuMjdoLTEzLjdjLTEyLjgxLDAtMjMuNTksMy40NC0yMy41OSwxNS41NSwwLDguMDQsNS40OCwxMi45OSwxNC41OCwxMi45OVoiIGNsYXNzPSJjbHMtMyIvPjxwYXRoIGQ9Ik02OTcuMTgsNjQuOThoMjEuNjR2MjAuMzJoLjM1YzQuNDItMTEuMDQsMTMuMjUtMjIuMTcsMzEuNzItMjIuMTcsMjAuNzYsMCwzMC4wNCwxNC4xNCwzMC4wNCwzNC43MnY2My43OWgtMjIuMzV2LTU4LjRjMC0xMi45OS00LjUtMjAuODUtMTcuNDktMjAuODVzLTIxLjU1LDguODQtMjEuNTUsMjUuMDl2NTQuMTZoLTIyLjM1di05Ni42NVoiIGNsYXNzPSJjbHMtMyIvPjxwYXRoIGQ9Ik04MDQuOSwzNy4xNWgyMy41djEyNC40OWgtMjMuNVYzNy4xNVoiIGNsYXNzPSJjbHMtMyIvPjxwYXRoIGQ9Ik04ODMuOTMsOTYuN2wtMzkuNTgtNTkuNTVoMjcuMjFsMjYuMTUsNDMuMDMsMjYuMDYtNDMuMDNoMjcuMjFsLTM5LjU4LDU5LjU1LDQyLjg1LDY0Ljk0aC0yNy4wNGwtMjkuNTEtNDkuNjUtMjkuNiw0OS42NWgtMjcuMDRsNDIuODUtNjQuOTRaIiBjbGFzcz0iY2xzLTMiLz48L3N2Zz4=" vertex="1" parent="1">
          <mxGeometry x="-1525" y="-1441.22" width="130" height="28.25" as="geometry" />
        </mxCell>
        <mxCell id="zdNEMFUqVTe8LAdngEql-25" value="" style="edgeStyle=elbowEdgeStyle;rounded=0;orthogonalLoop=1;jettySize=auto;html=1;strokeColor=#475E75;endArrow=none;endFill=0;strokeWidth=1.5;sourcePerimeterSpacing=0;targetPerimeterSpacing=0;endSize=4;startSize=4;elbow=vertical;startArrow=none;startFill=0;entryX=0;entryY=0.5;entryDx=0;entryDy=0;exitX=0.5;exitY=0;exitDx=0;exitDy=0;dashed=1;" edge="1" parent="1" source="zdNEMFUqVTe8LAdngEql-4" target="zdNEMFUqVTe8LAdngEql-23">
          <mxGeometry relative="1" as="geometry">
            <mxPoint x="-2125.75" y="-1373" as="sourcePoint" />
            <mxPoint x="-1488.5" y="-1280.5637000000002" as="targetPoint" />
            <Array as="points">
              <mxPoint x="-1810" y="-1420" />
            </Array>
          </mxGeometry>
        </mxCell>
        <UserObject label="&lt;font color=&quot;#556b82&quot;&gt;&lt;span style=&quot;font-size: 10px;&quot;&gt;Discovery&lt;/span&gt;&lt;/font&gt;" placeholders="1" name="Variable" id="zdNEMFUqVTe8LAdngEql-27">
          <mxCell style="text;html=1;strokeColor=none;fillColor=none;align=left;verticalAlign=middle;whiteSpace=wrap;overflow=hidden;fontColor=#1D2D3E;" vertex="1" parent="1">
            <mxGeometry x="-1732.9999999999998" y="-1441.22" width="123" height="18" as="geometry" />
          </mxCell>
        </UserObject>
        <mxCell id="zdNEMFUqVTe8LAdngEql-28" value="HTTPS" style="rounded=1;whiteSpace=wrap;html=1;strokeColor=#475E75;strokeWidth=1.5;arcSize=16;fillColor=#FFFFFF;perimeterSpacing=0;absoluteArcSize=1;fontColor=#475E75;fontSize=10;fontStyle=1" vertex="1" parent="1">
          <mxGeometry x="-1833.4299999999998" y="-1429.22" width="51" height="16" as="geometry" />
        </mxCell>
      </root>
    </mxGraphModel>
  </diagram>
</mxfile>
